<svg id="SvgjsSvg1006" width="713" height="643.109375" xmlns="http://www.w3.org/2000/svg" version="1.1" xmlns:xlink="http://www.w3.org/1999/xlink" xmlns:svgjs="http://svgjs.com/svgjs"><defs id="SvgjsDefs1007"><marker id="SvgjsMarker1071" markerWidth="14" markerHeight="10" refX="4" refY="5" viewBox="0 0 14 10" orient="auto" markerUnits="userSpaceOnUse" stroke-dasharray="0,0"><path id="SvgjsPath1072" d="M14,0 L0,5 L14,10 L14,0" fill="#323232" stroke="#323232" stroke-width="1"></path></marker><marker id="SvgjsMarker1073" markerWidth="14" markerHeight="10" refX="10" refY="5" viewBox="0 0 14 10" orient="auto" markerUnits="userSpaceOnUse" stroke-dasharray="0,0"><path id="SvgjsPath1074" d="M0,0 L14,5 L0,10 L0,0" fill="#323232" stroke="#323232" stroke-width="1"></path></marker><marker id="SvgjsMarker1077" markerWidth="14" markerHeight="10" refX="4" refY="5" viewBox="0 0 14 10" orient="auto" markerUnits="userSpaceOnUse" stroke-dasharray="0,0"><path id="SvgjsPath1078" d="M14,0 L0,5 L14,10 L14,0" fill="#323232" stroke="#323232" stroke-width="1"></path></marker><marker id="SvgjsMarker1079" markerWidth="14" markerHeight="10" refX="10" refY="5" viewBox="0 0 14 10" orient="auto" markerUnits="userSpaceOnUse" stroke-dasharray="0,0"><path id="SvgjsPath1080" d="M0,0 L14,5 L0,10 L0,0" fill="#323232" stroke="#323232" stroke-width="1"></path></marker><marker id="SvgjsMarker1089" markerWidth="14" markerHeight="10" refX="10" refY="5" viewBox="0 0 14 10" orient="auto" markerUnits="userSpaceOnUse" stroke-dasharray="0,0"><path id="SvgjsPath1090" d="M0,0 L14,5 L0,10 L0,0" fill="#323232" stroke="#323232" stroke-width="1"></path></marker><marker id="SvgjsMarker1121" markerWidth="14" markerHeight="10" refX="10" refY="5" viewBox="0 0 14 10" orient="auto" markerUnits="userSpaceOnUse" stroke-dasharray="0,0"><path id="SvgjsPath1122" d="M0,0 L14,5 L0,10 L0,0" fill="#323232" stroke="#323232" stroke-width="1"></path></marker><marker id="SvgjsMarker1131" markerWidth="14" markerHeight="10" refX="10" refY="5" viewBox="0 0 14 10" orient="auto" markerUnits="userSpaceOnUse" stroke-dasharray="0,0"><path id="SvgjsPath1132" d="M0,0 L14,5 L0,10 L0,0" fill="#323232" stroke="#323232" stroke-width="1"></path></marker><marker id="SvgjsMarker1135" markerWidth="14" markerHeight="10" refX="10" refY="5" viewBox="0 0 14 10" orient="auto" markerUnits="userSpaceOnUse" stroke-dasharray="0,0"><path id="SvgjsPath1136" d="M0,0 L14,5 L0,10 L0,0" fill="#323232" stroke="#323232" stroke-width="1"></path></marker><marker id="SvgjsMarker1139" markerWidth="14" markerHeight="10" refX="10" refY="5" viewBox="0 0 14 10" orient="auto" markerUnits="userSpaceOnUse" stroke-dasharray="0,0"><path id="SvgjsPath1140" d="M0,0 L14,5 L0,10 L0,0" fill="#323232" stroke="#323232" stroke-width="1"></path></marker><marker id="SvgjsMarker1149" markerWidth="14" markerHeight="10" refX="10" refY="5" viewBox="0 0 14 10" orient="auto" markerUnits="userSpaceOnUse" stroke-dasharray="0,0"><path id="SvgjsPath1150" d="M0,0 L14,5 L0,10 L0,0" fill="#323232" stroke="#323232" stroke-width="1"></path></marker><marker id="SvgjsMarker1153" markerWidth="14" markerHeight="10" refX="10" refY="5" viewBox="0 0 14 10" orient="auto" markerUnits="userSpaceOnUse" stroke-dasharray="0,0"><path id="SvgjsPath1154" d="M0,0 L14,5 L0,10 L0,0" fill="#323232" stroke="#323232" stroke-width="1"></path></marker><marker id="SvgjsMarker1157" markerWidth="14" markerHeight="10" refX="10" refY="5" viewBox="0 0 14 10" orient="auto" markerUnits="userSpaceOnUse" stroke-dasharray="0,0"><path id="SvgjsPath1158" d="M0,0 L14,5 L0,10 L0,0" fill="#323232" stroke="#323232" stroke-width="1"></path></marker><marker id="SvgjsMarker1173" markerWidth="14" markerHeight="10" refX="10" refY="5" viewBox="0 0 14 10" orient="auto" markerUnits="userSpaceOnUse" stroke-dasharray="0,0"><path id="SvgjsPath1174" d="M0,0 L14,5 L0,10 L0,0" fill="#323232" stroke="#323232" stroke-width="1"></path></marker><marker id="SvgjsMarker1177" markerWidth="14" markerHeight="10" refX="10" refY="5" viewBox="0 0 14 10" orient="auto" markerUnits="userSpaceOnUse" stroke-dasharray="0,0"><path id="SvgjsPath1178" d="M0,0 L14,5 L0,10 L0,0" fill="#323232" stroke="#323232" stroke-width="1"></path></marker></defs><g id="SvgjsG1008" transform="translate(158.01388549804688,25.00868034362793)"><path id="SvgjsPath1009" d="M 0 0L 160 0L 160 40L 0 40Z" stroke="none" fill="none"></path><g id="SvgjsG1010"><text id="SvgjsText1011" font-family="微软雅黑" text-anchor="middle" font-size="16px" width="160px" fill="#323232" font-weight="400" align="middle" lineHeight="125%" anchor="middle" family="微软雅黑" size="16px" weight="400" font-style="" opacity="1" y="8" transform="rotate(0)"><tspan id="SvgjsTspan1012" dy="20" x="80"><tspan id="SvgjsTspan1013" style="text-decoration:;">图像信息</tspan></tspan></text></g></g><g id="SvgjsG1014" transform="translate(428.0138854980469,33.23091125488281)"><path id="SvgjsPath1015" d="M 0 0L 160 0L 160 40L 0 40Z" stroke="none" fill="none"></path><g id="SvgjsG1016"><text id="SvgjsText1017" font-family="微软雅黑" text-anchor="middle" font-size="16px" width="160px" fill="#323232" font-weight="400" align="middle" lineHeight="125%" anchor="middle" family="微软雅黑" size="16px" weight="400" font-style="" opacity="1" y="8" transform="rotate(0)"><tspan id="SvgjsTspan1018" dy="20" x="80"><tspan id="SvgjsTspan1019" style="text-decoration:;">上传图片</tspan></tspan></text></g></g><g id="SvgjsG1020" transform="translate(311.0138854980469,35.45312023162842)"><path id="SvgjsPath1021" d="M 0 51.55556011199951C 0 -17.185186703999836 119 -17.185186703999836 119 51.55556011199951C 119 120.29630692799886 0 120.29630692799886 0 51.55556011199951Z" stroke="rgba(50,50,50,1)" stroke-width="2" fill-opacity="1" fill="#ffffff"></path><g id="SvgjsG1022"><text id="SvgjsText1023" font-family="微软雅黑" text-anchor="middle" font-size="15px" width="99px" fill="#323232" font-weight="400" align="middle" lineHeight="125%" anchor="middle" family="微软雅黑" size="15px" weight="400" font-style="" opacity="1" y="40.18056011199951" transform="rotate(0)"><tspan id="SvgjsTspan1024" dy="18" x="59.5"><tspan id="SvgjsTspan1025" style="text-decoration:;">数据中台</tspan></tspan></text></g></g><g id="SvgjsG1026" transform="translate(591.0138854980469,56.559027671813965)"><path id="SvgjsPath1027" d="M 0 0L 91.98611450195312 0L 91.98611450195312 64.89930534362793L 0 64.89930534362793Z" stroke="rgba(50,50,50,1)" stroke-width="2" fill-opacity="1" fill="#ffffff"></path><g id="SvgjsG1028"><text id="SvgjsText1029" font-family="微软雅黑" text-anchor="middle" font-size="15px" width="72px" fill="#323232" font-weight="400" align="middle" lineHeight="125%" anchor="middle" family="微软雅黑" size="15px" weight="400" font-style="" opacity="1" y="21.074652671813965" transform="rotate(0)"><tspan id="SvgjsTspan1030" dy="18" x="46"><tspan id="SvgjsTspan1031" style="text-decoration:;">用户</tspan></tspan></text></g></g><g id="SvgjsG1032" transform="translate(157.01388549804688,399.8923645019531)"><path id="SvgjsPath1033" d="M 0 35C 0 -11.666666666666666 100 -11.666666666666666 100 35C 100 81.66666666666667 0 81.66666666666667 0 35Z" stroke="rgba(50,50,50,1)" stroke-width="2" fill-opacity="1" fill="#ffffff"></path><g id="SvgjsG1034"><text id="SvgjsText1035" font-family="微软雅黑" text-anchor="middle" font-size="15px" width="80px" fill="#323232" font-weight="400" align="middle" lineHeight="125%" anchor="middle" family="微软雅黑" size="15px" weight="400" font-style="" opacity="1" y="23.625" transform="rotate(0)"><tspan id="SvgjsTspan1036" dy="18" x="50"><tspan id="SvgjsTspan1037" style="text-decoration:;">图像预处理</tspan></tspan></text></g></g><g id="SvgjsG1038" transform="translate(320.5138854980469,261.94271087646484)"><path id="SvgjsPath1039" d="M 0 35C 0 -11.666666666666666 100 -11.666666666666666 100 35C 100 81.66666666666667 0 81.66666666666667 0 35Z" stroke="rgba(50,50,50,1)" stroke-width="2" fill-opacity="1" fill="#ffffff"></path><g id="SvgjsG1040"><text id="SvgjsText1041" font-family="微软雅黑" text-anchor="middle" font-size="15px" width="80px" fill="#323232" font-weight="400" align="middle" lineHeight="125%" anchor="middle" family="微软雅黑" size="15px" weight="400" font-style="" opacity="1" y="14.125" transform="rotate(0)"><tspan id="SvgjsTspan1042" dy="18" x="50"><tspan id="SvgjsTspan1043" style="text-decoration:;">手写文字提</tspan></tspan><tspan id="SvgjsTspan1044" dy="18" x="50"><tspan id="SvgjsTspan1045" style="text-decoration:;">取</tspan></tspan></text></g></g><g id="SvgjsG1046" transform="translate(156.01388549804688,261.94271087646484)"><path id="SvgjsPath1047" d="M 0 0L 101 0L 0 0M 0 33.89930725097656L 101 33.89930725097656L 0 33.89930725097656Z" stroke="rgba(50,50,50,1)" stroke-width="2" fill-opacity="1" fill="#ffffff"></path><path id="SvgjsPath1048" d="M 0 0L 101 0L 101 33.89930725097656L 0 33.89930725097656L 0 0Z" stroke="none" fill="none"></path><g id="SvgjsG1049"><text id="SvgjsText1050" font-family="微软雅黑" text-anchor="middle" font-size="15px" width="81px" fill="#323232" font-weight="400" align="middle" lineHeight="125%" anchor="middle" family="微软雅黑" size="15px" weight="400" font-style="" opacity="1" y="5.574653625488281" transform="rotate(0)"><tspan id="SvgjsTspan1051" dy="18" x="50.5"><tspan id="SvgjsTspan1052" style="text-decoration:;">基础图像</tspan></tspan></text></g></g><g id="SvgjsG1053" transform="translate(48.013885498046875,383.90277576446533)"><path id="SvgjsPath1054" d="M 0 0L 160 0L 160 40L 0 40Z" stroke="none" fill="none"></path><g id="SvgjsG1055"><text id="SvgjsText1056" font-family="微软雅黑" text-anchor="middle" font-size="16px" width="160px" fill="#323232" font-weight="400" align="middle" lineHeight="125%" anchor="middle" family="微软雅黑" size="16px" weight="400" font-style="" opacity="1" y="8" transform="rotate(0)"><tspan id="SvgjsTspan1057" dy="20" x="80"><tspan id="SvgjsTspan1058" style="text-decoration:;">校验后的图片</tspan></tspan></text></g></g><g id="SvgjsG1059" transform="translate(528.0138854980469,228.56684350967407)"><path id="SvgjsPath1060" d="M 0 0L 160 0L 160 40L 0 40Z" stroke="none" fill="none"></path><g id="SvgjsG1061"><text id="SvgjsText1062" font-family="微软雅黑" text-anchor="middle" font-size="16px" width="160px" fill="#323232" font-weight="400" align="middle" lineHeight="125%" anchor="middle" family="微软雅黑" size="16px" weight="400" font-style="" opacity="1" y="8" transform="rotate(0)"></text></g></g><g id="SvgjsG1063" transform="translate(335.5138854980469,578.1197967529297)"><path id="SvgjsPath1064" d="M 0 0L 160 0L 160 40L 0 40Z" stroke="none" fill="none"></path><g id="SvgjsG1065"><text id="SvgjsText1066" font-family="微软雅黑" text-anchor="middle" font-size="15px" width="160px" fill="#323232" font-weight="400" align="middle" lineHeight="125%" anchor="middle" family="微软雅黑" size="15px" weight="400" font-style="" opacity="1" y="8.625" transform="rotate(0)"><tspan id="SvgjsTspan1067" dy="18" x="80"><tspan id="SvgjsTspan1068" style="text-decoration:;">（b）0层数据流图</tspan></tspan></text></g></g><g id="SvgjsG1069"><path id="SvgjsPath1070" d="M317.1340643100229 56.713684413139845L233.36024138317907 56.713684413139845L233.36024138317907 56.713684413139845L145.98641845633517 56.713684413139845" stroke="#323232" stroke-width="2" fill="none" marker-start="url(#SvgjsMarker1071)" marker-end="url(#SvgjsMarker1073)"></path></g><g id="SvgjsG1075"><path id="SvgjsPath1076" d="M307.41388549804685 87.00868034362793L228.50694274902344 87.00868034362793L228.50694274902344 86.61458683013916L146 86.61458683013916" stroke="#323232" stroke-width="2" fill="none" marker-start="url(#SvgjsMarker1077)" marker-end="url(#SvgjsMarker1079)"></path></g><g id="SvgjsG1081" transform="translate(158.01388549804688,56.00868034362793)"><path id="SvgjsPath1082" d="M 0 0L 160 0L 160 40L 0 40Z" stroke="none" fill="none"></path><g id="SvgjsG1083"><text id="SvgjsText1084" font-family="微软雅黑" text-anchor="middle" font-size="16px" width="160px" fill="#323232" font-weight="400" align="middle" lineHeight="125%" anchor="middle" family="微软雅黑" size="16px" weight="400" font-style="" opacity="1" y="8" transform="rotate(0)"><tspan id="SvgjsTspan1085" dy="20" x="80"><tspan id="SvgjsTspan1086" style="text-decoration:;">处理结果</tspan></tspan></text></g></g><g id="SvgjsG1087"><path id="SvgjsPath1088" d="M425.09369221296333 107.42844426073214L508.0467716896828 107.42844426073214L508.0467716896828 107.42844426073214L588.3998511664023 107.42844426073214" stroke="#323232" stroke-width="2" fill="none" marker-end="url(#SvgjsMarker1089)"></path></g><g id="SvgjsG1091" transform="translate(428.0138854980469,75.00868034362793)"><path id="SvgjsPath1092" d="M 0 0L 160 0L 160 40L 0 40Z" stroke="none" fill="none"></path><g id="SvgjsG1093"><text id="SvgjsText1094" font-family="微软雅黑" text-anchor="middle" font-size="16px" width="160px" fill="#323232" font-weight="400" align="middle" lineHeight="125%" anchor="middle" family="微软雅黑" size="16px" weight="400" font-style="" opacity="1" y="8" transform="rotate(0)"><tspan id="SvgjsTspan1095" dy="20" x="80"><tspan id="SvgjsTspan1096" style="text-decoration:;">处理信息</tspan></tspan></text></g></g><g id="SvgjsG1097" transform="translate(257.0138854980469,157.11979866027832)"><path id="SvgjsPath1098" d="M 0 0L 227 0L 227 30L 0 30Z" stroke="none" fill="none"></path><g id="SvgjsG1099"><text id="SvgjsText1100" font-family="微软雅黑" text-anchor="middle" font-size="16px" width="227px" fill="#323232" font-weight="400" align="middle" lineHeight="125%" anchor="middle" family="微软雅黑" size="16px" weight="400" font-style="" opacity="1" y="3" transform="rotate(0)"><tspan id="SvgjsTspan1101" dy="20" x="113.5"><tspan id="SvgjsTspan1102" style="text-decoration:;">（a）顶层数据流图</tspan></tspan></text></g></g><g id="SvgjsG1103" transform="translate(25.013885498046875,337.67535400390625)"><path id="SvgjsPath1104" d="M 0 0L 50 0L 50 194.43402099609375L 0 194.43402099609375Z" stroke="rgba(50,50,50,1)" stroke-width="2" fill-opacity="1" fill="#ffffff"></path><g id="SvgjsG1105"><text id="SvgjsText1106" font-family="微软雅黑" text-anchor="middle" font-size="19px" width="30px" fill="#323232" font-weight="400" align="middle" lineHeight="125%" anchor="middle" family="微软雅黑" size="19px" weight="400" font-style="" opacity="1" y="59.342010498046875" transform="rotate(0)"><tspan id="SvgjsTspan1107" dy="23" x="25"><tspan id="SvgjsTspan1108" style="text-decoration:;">服</tspan></tspan><tspan id="SvgjsTspan1109" dy="23" x="25"><tspan id="SvgjsTspan1110" style="text-decoration:;">务</tspan></tspan><tspan id="SvgjsTspan1111" dy="23" x="25"><tspan id="SvgjsTspan1112" style="text-decoration:;">端</tspan></tspan></text></g></g><g id="SvgjsG1113" transform="translate(320.5138854980469,368.90277576446533)"><path id="SvgjsPath1114" d="M 0 35C 0 -11.666666666666666 100 -11.666666666666666 100 35C 100 81.66666666666667 0 81.66666666666667 0 35Z" stroke="rgba(50,50,50,1)" stroke-width="2" fill-opacity="1" fill="#ffffff"></path><g id="SvgjsG1115"><text id="SvgjsText1116" font-family="微软雅黑" text-anchor="middle" font-size="15px" width="80px" fill="#323232" font-weight="400" align="middle" lineHeight="125%" anchor="middle" family="微软雅黑" size="15px" weight="400" font-style="" opacity="1" y="23.625" transform="rotate(0)"><tspan id="SvgjsTspan1117" dy="18" x="50"><tspan id="SvgjsTspan1118" style="text-decoration:;">图像识别</tspan></tspan></text></g></g><g id="SvgjsG1119"><path id="SvgjsPath1120" d="M590 69.109375L508.01703708685545 69.109375L508.01703708685545 69.109375L428.6340741737109 69.109375" stroke="#323232" stroke-width="2" fill="none" marker-end="url(#SvgjsMarker1121)"></path></g><g id="SvgjsG1123" transform="translate(31.013885498046875,25.00868034362793)"><path id="SvgjsPath1124" d="M 0 51.55556011199951C 0 -17.185186703999836 119 -17.185186703999836 119 51.55556011199951C 119 120.29630692799886 0 120.29630692799886 0 51.55556011199951Z" stroke="rgba(50,50,50,1)" stroke-width="2" fill-opacity="1" fill="#ffffff"></path><g id="SvgjsG1125"><text id="SvgjsText1126" font-family="微软雅黑" text-anchor="middle" font-size="15px" width="99px" fill="#323232" font-weight="400" align="middle" lineHeight="125%" anchor="middle" family="微软雅黑" size="15px" weight="400" font-style="" opacity="1" y="40.18056011199951" transform="rotate(0)"><tspan id="SvgjsTspan1127" dy="18" x="59.5"><tspan id="SvgjsTspan1128" style="text-decoration:;">服务端</tspan></tspan></text></g></g><g id="SvgjsG1129"><path id="SvgjsPath1130" d="M76.01388549804688 434.8923645019531L116.01388549804688 434.8923645019531L116.01388549804688 434.8923645019531L153.41388549804688 434.8923645019531" stroke="#323232" stroke-width="2" fill="none" marker-end="url(#SvgjsMarker1131)"></path></g><g id="SvgjsG1133"><path id="SvgjsPath1134" d="M207.01388549804688 398.8923645019531L207.01388549804688 347.50086975097656L181 347.50086975097656L181 298.709375" stroke="#323232" stroke-width="2" fill="none" marker-end="url(#SvgjsMarker1135)"></path></g><g id="SvgjsG1137"><path id="SvgjsPath1138" d="M421.5138854980469 296.94271087646484L479.75694274902344 296.94271087646484L479.75694274902344 296.94271087646484L539 296.94271087646484" stroke="#323232" stroke-width="2" fill="none" marker-end="url(#SvgjsMarker1139)"></path></g><g id="SvgjsG1141" transform="translate(397.00694274902344,255.8420181274414)"><path id="SvgjsPath1142" d="M 0 0L 160 0L 160 40L 0 40Z" stroke="none" fill="none"></path><g id="SvgjsG1143"><text id="SvgjsText1144" font-family="微软雅黑" text-anchor="middle" font-size="16px" width="160px" fill="#323232" font-weight="400" align="middle" lineHeight="125%" anchor="middle" family="微软雅黑" size="16px" weight="400" font-style="" opacity="1" y="8" transform="rotate(0)"><tspan id="SvgjsTspan1145" dy="20" x="80"><tspan id="SvgjsTspan1146" style="text-decoration:;">提取的文字</tspan></tspan></text></g></g><g id="SvgjsG1147"><path id="SvgjsPath1148" d="M258 272.109375L288.75694274902344 272.109375L288.75694274902344 272.109375L320.5138854980469 272.109375" stroke="#323232" stroke-width="2" fill="none" marker-end="url(#SvgjsMarker1149)"></path></g><g id="SvgjsG1151"><path id="SvgjsPath1152" d="M258 283.109375L289.81261557407333 283.109375L289.81261557407333 412.4189019530372L319.0252311481466 412.4189019530372" stroke="#323232" stroke-width="2" fill="none" marker-end="url(#SvgjsMarker1153)"></path></g><g id="SvgjsG1155"><path id="SvgjsPath1156" d="M421.5138854980469 403.90277576446533L482.75694274902344 403.90277576446533L482.75694274902344 403.90277576446533L545 403.90277576446533" stroke="#323232" stroke-width="2" fill="none" marker-end="url(#SvgjsMarker1157)"></path></g><g id="SvgjsG1159" transform="translate(397.00694274902344,359.8923645019531)"><path id="SvgjsPath1160" d="M 0 0L 160 0L 160 40L 0 40Z" stroke="none" fill="none"></path><g id="SvgjsG1161"><text id="SvgjsText1162" font-family="微软雅黑" text-anchor="middle" font-size="16px" width="160px" fill="#323232" font-weight="400" align="middle" lineHeight="125%" anchor="middle" family="微软雅黑" size="16px" weight="400" font-style="" opacity="1" y="8" transform="rotate(0)"><tspan id="SvgjsTspan1163" dy="20" x="80"><tspan id="SvgjsTspan1164" style="text-decoration:;">图像识别结果</tspan></tspan></text></g></g><g id="SvgjsG1165" transform="translate(328.0138854980469,469.8923645019531)"><path id="SvgjsPath1166" d="M 0 35C 0 -11.666666666666666 100 -11.666666666666666 100 35C 100 81.66666666666667 0 81.66666666666667 0 35Z" stroke="rgba(50,50,50,1)" stroke-width="2" fill-opacity="1" fill="#ffffff"></path><g id="SvgjsG1167"><text id="SvgjsText1168" font-family="微软雅黑" text-anchor="middle" font-size="15px" width="80px" fill="#323232" font-weight="400" align="middle" lineHeight="125%" anchor="middle" family="微软雅黑" size="15px" weight="400" font-style="" opacity="1" y="23.625" transform="rotate(0)"><tspan id="SvgjsTspan1169" dy="18" x="50"><tspan id="SvgjsTspan1170" style="text-decoration:;">照片换底</tspan></tspan></text></g></g><g id="SvgjsG1171"><path id="SvgjsPath1172" d="M253.1547634765186 296.2967594259267L253.1547634765186 494.5035160032796L326.97784834550134 494.5035160032796" stroke="#323232" stroke-width="2" fill="none" marker-end="url(#SvgjsMarker1173)"></path></g><g id="SvgjsG1175"><path id="SvgjsPath1176" d="M429.0138854980469 504.8923645019531L487.00694274902344 504.8923645019531L487.00694274902344 504.8923645019531L546 504.8923645019531" stroke="#323232" stroke-width="2" fill="none" marker-end="url(#SvgjsMarker1177)"></path></g><g id="SvgjsG1179" transform="translate(397.00694274902344,463.94271087646484)"><path id="SvgjsPath1180" d="M 0 0L 160 0L 160 40L 0 40Z" stroke="none" fill="none"></path><g id="SvgjsG1181"><text id="SvgjsText1182" font-family="微软雅黑" text-anchor="middle" font-size="16px" width="160px" fill="#323232" font-weight="400" align="middle" lineHeight="125%" anchor="middle" family="微软雅黑" size="16px" weight="400" font-style="" opacity="1" y="8" transform="rotate(0)"><tspan id="SvgjsTspan1183" dy="20" x="80"><tspan id="SvgjsTspan1184" style="text-decoration:;">换底后的图片</tspan></tspan></text></g></g></svg>