<svg id="SvgjsSvg1262" width="742" height="714.375" xmlns="http://www.w3.org/2000/svg" version="1.1" xmlns:xlink="http://www.w3.org/1999/xlink" xmlns:svgjs="http://svgjs.com/svgjs"><defs id="SvgjsDefs1263"><marker id="SvgjsMarker1433" markerWidth="14" markerHeight="10" refX="10" refY="5" viewBox="0 0 14 10" orient="auto" markerUnits="userSpaceOnUse" stroke-dasharray="0,0"><path id="SvgjsPath1434" d="M0,0 L14,5 L0,10 L0,0" fill="#ffcc99" stroke="#ffcc99" stroke-width="1"></path></marker><marker id="SvgjsMarker1437" markerWidth="14" markerHeight="10" refX="10" refY="5" viewBox="0 0 14 10" orient="auto" markerUnits="userSpaceOnUse" stroke-dasharray="0,0"><path id="SvgjsPath1438" d="M0,0 L14,5 L0,10 L0,0" fill="#99ff99" stroke="#99ff99" stroke-width="1"></path></marker><marker id="SvgjsMarker1486" markerWidth="14" markerHeight="10" refX="4" refY="5" viewBox="0 0 14 10" orient="auto" markerUnits="userSpaceOnUse" stroke-dasharray="0,0"><path id="SvgjsPath1487" d="M14,0 L0,5 L14,10 L14,0" fill="#66ffb3" stroke="#66ffb3" stroke-width="1"></path></marker><marker id="SvgjsMarker1490" markerWidth="14" markerHeight="10" refX="4" refY="5" viewBox="0 0 14 10" orient="auto" markerUnits="userSpaceOnUse" stroke-dasharray="0,0"><path id="SvgjsPath1491" d="M14,0 L0,5 L14,10 L14,0" fill="#66ffb3" stroke="#66ffb3" stroke-width="1"></path></marker><marker id="SvgjsMarker1494" markerWidth="14" markerHeight="10" refX="10" refY="5" viewBox="0 0 14 10" orient="auto" markerUnits="userSpaceOnUse" stroke-dasharray="0,0"><path id="SvgjsPath1495" d="M0,0 L14,5 L0,10 L0,0" fill="#99ff99" stroke="#99ff99" stroke-width="1"></path></marker><marker id="SvgjsMarker1498" markerWidth="14" markerHeight="10" refX="10" refY="5" viewBox="0 0 14 10" orient="auto" markerUnits="userSpaceOnUse" stroke-dasharray="0,0"><path id="SvgjsPath1499" d="M0,0 L14,5 L0,10 L0,0" fill="#9999ff" stroke="#9999ff" stroke-width="1"></path></marker></defs><g id="SvgjsG1264" transform="translate(124.5,449.47141466028233)"><path id="SvgjsPath1265" d="M 0 4Q 0 0 4 0L 550 0Q 554 0 554 4L 554 109Q 554 113 550 113L 4 113Q 0 113 0 109Z" stroke="none" fill-opacity="1" fill="#9999ff"></path><g id="SvgjsG1266"><text id="SvgjsText1267" font-family="微软雅黑" text-anchor="middle" font-size="13px" width="534px" fill="#323232" font-weight="400" align="middle" lineHeight="125%" anchor="middle" family="微软雅黑" size="13px" weight="400" font-style="" opacity="1" y="46.875" transform="rotate(0)"></text></g></g><g id="SvgjsG1268" transform="translate(26,428.70165745856343)"><path id="SvgjsPath1269" d="M 0 10.5L 691 10.5" stroke-dasharray="10,6" stroke="rgba(136,136,136,1)" stroke-width="1" fill="none"></path><path id="SvgjsPath1270" d="M 0 0L 691 0L 691 21L 0 21Z" stroke="none" fill="none"></path></g><g id="SvgjsG1271" transform="translate(26,290.2302427982811)"><path id="SvgjsPath1272" d="M 0 10.5L 691 10.5" stroke-dasharray="10,6" stroke="rgba(136,136,136,1)" stroke-width="1" fill="none"></path><path id="SvgjsPath1273" d="M 0 0L 691 0L 691 21L 0 21Z" stroke="none" fill="none"></path></g><g id="SvgjsG1274" transform="translate(26,76.2302427982811)"><path id="SvgjsPath1275" d="M 0 10.5L 691 10.5" stroke-dasharray="10,6" stroke="rgba(136,136,136,1)" stroke-width="1" fill="none"></path><path id="SvgjsPath1276" d="M 0 0L 691 0L 691 21L 0 21Z" stroke="none" fill="none"></path></g><g id="SvgjsG1277" transform="translate(139.5,25)"><path id="SvgjsPath1278" d="M 0 4Q 0 0 4 0L 550 0Q 554 0 554 4L 554 50Q 554 54 550 54L 4 54Q 0 54 0 50Z" stroke="none" fill-opacity="1" fill="#66ffb3"></path><g id="SvgjsG1279"><text id="SvgjsText1280" font-family="微软雅黑" text-anchor="middle" font-size="13px" width="534px" fill="#323232" font-weight="400" align="middle" lineHeight="125%" anchor="middle" family="微软雅黑" size="13px" weight="400" font-style="" opacity="1" y="17.375" transform="rotate(0)"></text></g></g><g id="SvgjsG1281" transform="translate(124.5,588.7127071823205)"><path id="SvgjsPath1282" d="M 0 4Q 0 0 4 0L 550 0Q 554 0 554 4L 554 74.57458563535897Q 554 78.57458563535897 550 78.57458563535897L 4 78.57458563535897Q 0 78.57458563535897 0 74.57458563535897Z" stroke="none" fill-opacity="1" fill="#99ccff"></path><g id="SvgjsG1283"><text id="SvgjsText1284" font-family="微软雅黑" text-anchor="middle" font-size="13px" width="534px" fill="#323232" font-weight="400" align="middle" lineHeight="125%" anchor="middle" family="微软雅黑" size="13px" weight="400" font-style="" opacity="1" y="29.662292817679486" transform="rotate(0)"></text></g></g><g id="SvgjsG1285" transform="translate(33,606.5)"><path id="SvgjsPath1286" d="M 0 0L 95 0L 95 43L 0 43Z" stroke="none" fill="none"></path><g id="SvgjsG1287"><text id="SvgjsText1288" font-family="微软雅黑" text-anchor="middle" font-size="13px" width="95px" fill="#323232" font-weight="400" align="middle" lineHeight="125%" anchor="middle" family="微软雅黑" size="13px" weight="400" font-style="" opacity="1" y="11.875" transform="rotate(0)"><tspan id="SvgjsTspan1289" dy="16" x="47.5"><tspan id="SvgjsTspan1290" style="text-decoration:;">运行环境</tspan></tspan></text></g></g><g id="SvgjsG1291" transform="translate(217,612.5)"><path id="SvgjsPath1292" d="M 0 0L 121 0L 121 31L 0 31Z" stroke="rgba(50,50,50,1)" stroke-width="2" fill-opacity="1" fill="#ffffff"></path><g id="SvgjsG1293"><text id="SvgjsText1294" font-family="微软雅黑" text-anchor="middle" font-size="13px" width="101px" fill="#323232" font-weight="400" align="middle" lineHeight="125%" anchor="middle" family="微软雅黑" size="13px" weight="400" font-style="" opacity="1" y="5.875" transform="rotate(0)"><tspan id="SvgjsTspan1295" dy="16" x="60.5"><tspan id="SvgjsTspan1296" style="text-decoration:;">阿里云主机</tspan></tspan></text></g></g><g id="SvgjsG1297" transform="translate(499.61918558408104,612.5)"><path id="SvgjsPath1298" d="M 0 0L 121 0L 121 31L 0 31Z" stroke="rgba(50,50,50,1)" stroke-width="2" fill-opacity="1" fill="#ffffff"></path><g id="SvgjsG1299"><text id="SvgjsText1300" font-family="微软雅黑" text-anchor="middle" font-size="13px" width="101px" fill="#323232" font-weight="400" align="middle" lineHeight="125%" anchor="middle" family="微软雅黑" size="13px" weight="400" font-style="" opacity="1" y="5.875" transform="rotate(0)"><tspan id="SvgjsTspan1301" dy="16" x="60.5"><tspan id="SvgjsTspan1302" style="text-decoration:;">第三方虚拟主机</tspan></tspan></text></g></g><g id="SvgjsG1303" transform="translate(356.00000000000006,612.5)"><path id="SvgjsPath1304" d="M 0 0L 121 0L 121 31L 0 31Z" stroke="rgba(50,50,50,1)" stroke-width="2" fill-opacity="1" fill="#ffffff"></path><g id="SvgjsG1305"><text id="SvgjsText1306" font-family="微软雅黑" text-anchor="middle" font-size="13px" width="101px" fill="#323232" font-weight="400" align="middle" lineHeight="125%" anchor="middle" family="微软雅黑" size="13px" weight="400" font-style="" opacity="1" y="5.875" transform="rotate(0)"><tspan id="SvgjsTspan1307" dy="16" x="60.5"><tspan id="SvgjsTspan1308" style="text-decoration:;">独立服务器</tspan></tspan></text></g></g><g id="SvgjsG1309" transform="translate(133.39209768256734,311)"><path id="SvgjsPath1310" d="M 0 4Q 0 0 4 0L 503.58297253532044 0Q 507.58297253532044 0 507.58297253532044 4L 507.58297253532044 116Q 507.58297253532044 120 503.58297253532044 120L 4 120Q 0 120 0 116Z" stroke="none" fill-opacity="1" fill="#99ff99"></path><g id="SvgjsG1311"><text id="SvgjsText1312" font-family="微软雅黑" text-anchor="middle" font-size="13px" width="488px" fill="#323232" font-weight="400" align="middle" lineHeight="125%" anchor="middle" family="微软雅黑" size="13px" weight="400" font-style="" opacity="1" y="50.375" transform="rotate(0)"></text></g></g><g id="SvgjsG1313" transform="translate(300.66633858264106,372.5)"><path id="SvgjsPath1314" d="M 0 0L 112 0L 112 37L 0 37Z" stroke="rgba(50,50,50,1)" stroke-width="2" fill-opacity="1" fill="#ffffff"></path><g id="SvgjsG1315"><text id="SvgjsText1316" font-family="微软雅黑" text-anchor="middle" font-size="13px" width="92px" fill="#323232" font-weight="400" align="middle" lineHeight="125%" anchor="middle" family="微软雅黑" size="13px" weight="400" font-style="" opacity="1" y="8.875" transform="rotate(0)"><tspan id="SvgjsTspan1317" dy="16" x="56"><tspan id="SvgjsTspan1318" style="text-decoration:;">读写数据库</tspan></tspan></text></g></g><g id="SvgjsG1319" transform="translate(25,345.75760446136127)"><path id="SvgjsPath1320" d="M 0 0L 95 0L 95 43L 0 43Z" stroke="none" fill="none"></path><g id="SvgjsG1321"><text id="SvgjsText1322" font-family="微软雅黑" text-anchor="middle" font-size="13px" width="95px" fill="#323232" font-weight="400" align="middle" lineHeight="125%" anchor="middle" family="微软雅黑" size="13px" weight="400" font-style="" opacity="1" y="11.875" transform="rotate(0)"><tspan id="SvgjsTspan1323" dy="16" x="47.5"><tspan id="SvgjsTspan1324" style="text-decoration:;">数据层</tspan></tspan></text></g></g><g id="SvgjsG1325" transform="translate(133.86716790045523,188)"><path id="SvgjsPath1326" d="M 0 4Q 0 0 4 0L 502.63283209954477 0Q 506.63283209954477 0 506.63283209954477 4L 506.63283209954477 94Q 506.63283209954477 98 502.63283209954477 98L 4 98Q 0 98 0 94Z" stroke="none" fill-opacity="1" fill="#99ff99"></path><g id="SvgjsG1327"><text id="SvgjsText1328" font-family="微软雅黑" text-anchor="middle" font-size="13px" width="487px" fill="#323232" font-weight="400" align="middle" lineHeight="125%" anchor="middle" family="微软雅黑" size="13px" weight="400" font-style="" opacity="1" y="39.375" transform="rotate(0)"></text></g></g><g id="SvgjsG1329" transform="translate(25,215.5)"><path id="SvgjsPath1330" d="M 0 0L 95 0L 95 43L 0 43Z" stroke="none" fill="none"></path><g id="SvgjsG1331"><text id="SvgjsText1332" font-family="微软雅黑" text-anchor="middle" font-size="13px" width="95px" fill="#323232" font-weight="400" align="middle" lineHeight="125%" anchor="middle" family="微软雅黑" size="13px" weight="400" font-style="" opacity="1" y="11.875" transform="rotate(0)"><tspan id="SvgjsTspan1333" dy="16" x="47.5"><tspan id="SvgjsTspan1334" style="text-decoration:;">业务层</tspan></tspan></text></g></g><g id="SvgjsG1335" transform="translate(176.5,199.5)"><path id="SvgjsPath1336" d="M 0 0L 112 0L 112 31L 0 31Z" stroke="rgba(50,50,50,1)" stroke-width="2" fill-opacity="1" fill="#ffffff"></path><g id="SvgjsG1337"><text id="SvgjsText1338" font-family="微软雅黑" text-anchor="middle" font-size="13px" width="92px" fill="#323232" font-weight="400" align="middle" lineHeight="125%" anchor="middle" family="微软雅黑" size="13px" weight="400" font-style="" opacity="1" y="5.875" transform="rotate(0)"><tspan id="SvgjsTspan1339" dy="16" x="56"><tspan id="SvgjsTspan1340" style="text-decoration:;">手写提取</tspan></tspan></text></g></g><g id="SvgjsG1341" transform="translate(304.50785340040215,199.5)"><path id="SvgjsPath1342" d="M 0 0L 112 0L 112 31L 0 31Z" stroke="rgba(50,50,50,1)" stroke-width="2" fill-opacity="1" fill="#ffffff"></path><g id="SvgjsG1343"><text id="SvgjsText1344" font-family="微软雅黑" text-anchor="middle" font-size="13px" width="92px" fill="#323232" font-weight="400" align="middle" lineHeight="125%" anchor="middle" family="微软雅黑" size="13px" weight="400" font-style="" opacity="1" y="5.875" transform="rotate(0)"><tspan id="SvgjsTspan1345" dy="16" x="56"><tspan id="SvgjsTspan1346" style="text-decoration:;">图片换底</tspan></tspan></text></g></g><g id="SvgjsG1347" transform="translate(26,668.3881370995182)"><path id="SvgjsPath1348" d="M 0 10.5L 691 10.5" stroke-dasharray="10,6" stroke="rgba(136,136,136,1)" stroke-width="1" fill="none"></path><path id="SvgjsPath1349" d="M 0 0L 691 0L 691 21L 0 21Z" stroke="none" fill="none"></path></g><g id="SvgjsG1350" transform="translate(300.66633858264106,323.5)"><path id="SvgjsPath1351" d="M 0 0L 112 0L 112 37L 0 37Z" stroke="rgba(50,50,50,1)" stroke-width="2" fill-opacity="1" fill="#ffffff"></path><g id="SvgjsG1352"><text id="SvgjsText1353" font-family="微软雅黑" text-anchor="middle" font-size="13px" width="92px" fill="#323232" font-weight="400" align="middle" lineHeight="125%" anchor="middle" family="微软雅黑" size="13px" weight="400" font-style="" opacity="1" y="8.875" transform="rotate(0)"><tspan id="SvgjsTspan1354" dy="16" x="56"><tspan id="SvgjsTspan1355" style="text-decoration:;">语义分割</tspan></tspan></text></g></g><g id="SvgjsG1356" transform="translate(431.5,199.5)"><path id="SvgjsPath1357" d="M 0 0L 112 0L 112 31L 0 31Z" stroke="rgba(50,50,50,1)" stroke-width="2" fill-opacity="1" fill="#ffffff"></path><g id="SvgjsG1358"><text id="SvgjsText1359" font-family="微软雅黑" text-anchor="middle" font-size="13px" width="92px" fill="#323232" font-weight="400" align="middle" lineHeight="125%" anchor="middle" family="微软雅黑" size="13px" weight="400" font-style="" opacity="1" y="5.875" transform="rotate(0)"><tspan id="SvgjsTspan1360" dy="16" x="56"><tspan id="SvgjsTspan1361" style="text-decoration:;">图像分割</tspan></tspan></text></g></g><g id="SvgjsG1362" transform="translate(176.5,242.811567164179)"><path id="SvgjsPath1363" d="M 0 0L 112 0L 112 31L 0 31Z" stroke="rgba(50,50,50,1)" stroke-width="2" fill-opacity="1" fill="#ffffff"></path><g id="SvgjsG1364"><text id="SvgjsText1365" font-family="微软雅黑" text-anchor="middle" font-size="13px" width="92px" fill="#323232" font-weight="400" align="middle" lineHeight="125%" anchor="middle" family="微软雅黑" size="13px" weight="400" font-style="" opacity="1" y="5.875" transform="rotate(0)"><tspan id="SvgjsTspan1366" dy="16" x="56"><tspan id="SvgjsTspan1367" style="text-decoration:;">统计报表</tspan></tspan></text></g></g><g id="SvgjsG1368" transform="translate(304.50785340040215,242.811567164179)"><path id="SvgjsPath1369" d="M 0 0L 112 0L 112 31L 0 31Z" stroke="rgba(50,50,50,1)" stroke-width="2" fill-opacity="1" fill="#ffffff"></path><g id="SvgjsG1370"><text id="SvgjsText1371" font-family="微软雅黑" text-anchor="middle" font-size="13px" width="92px" fill="#323232" font-weight="400" align="middle" lineHeight="125%" anchor="middle" family="微软雅黑" size="13px" weight="400" font-style="" opacity="1" y="5.875" transform="rotate(0)"><tspan id="SvgjsTspan1372" dy="16" x="56"><tspan id="SvgjsTspan1373" style="text-decoration:;">系统日志</tspan></tspan></text></g></g><g id="SvgjsG1374" transform="translate(431.5,242.811567164179)"><path id="SvgjsPath1375" d="M 0 0L 112 0L 112 31L 0 31Z" stroke="rgba(50,50,50,1)" stroke-width="2" fill-opacity="1" fill="#ffffff"></path><g id="SvgjsG1376"><text id="SvgjsText1377" font-family="微软雅黑" text-anchor="middle" font-size="13px" width="92px" fill="#323232" font-weight="700" align="middle" lineHeight="125%" anchor="middle" family="微软雅黑" size="13px" weight="700" font-style="" opacity="1" y="5.875" transform="rotate(0)"><tspan id="SvgjsTspan1378" dy="16" x="56"><tspan id="SvgjsTspan1379" style="text-decoration:;">… …</tspan></tspan></text></g></g><g id="SvgjsG1380" transform="translate(25,30.5)"><path id="SvgjsPath1381" d="M 0 0L 95 0L 95 43L 0 43Z" stroke="none" fill="none"></path><g id="SvgjsG1382"><text id="SvgjsText1383" font-family="微软雅黑" text-anchor="middle" font-size="13px" width="95px" fill="#323232" font-weight="400" align="middle" lineHeight="125%" anchor="middle" family="微软雅黑" size="13px" weight="400" font-style="" opacity="1" y="11.875" transform="rotate(0)"><tspan id="SvgjsTspan1384" dy="16" x="47.5"><tspan id="SvgjsTspan1385" style="text-decoration:;">前端UI</tspan></tspan></text></g></g><g id="SvgjsG1386" transform="translate(374.5,36.5)"><path id="SvgjsPath1387" d="M 0 0L 95 0L 95 31L 0 31Z" stroke="rgba(50,50,50,1)" stroke-width="2" fill-opacity="1" fill="#ffffff"></path><g id="SvgjsG1388"><text id="SvgjsText1389" font-family="微软雅黑" text-anchor="middle" font-size="13px" width="75px" fill="#323232" font-weight="400" align="middle" lineHeight="125%" anchor="middle" family="微软雅黑" size="13px" weight="400" font-style="" opacity="1" y="5.875" transform="rotate(0)"><tspan id="SvgjsTspan1390" dy="16" x="47.5"><tspan id="SvgjsTspan1391" style="text-decoration:;">javascript</tspan></tspan></text></g></g><g id="SvgjsG1392" transform="translate(238,36.5)"><path id="SvgjsPath1393" d="M 0 0L 95 0L 95 31L 0 31Z" stroke="rgba(50,50,50,1)" stroke-width="2" fill-opacity="1" fill="#ffffff"></path><g id="SvgjsG1394"><text id="SvgjsText1395" font-family="微软雅黑" text-anchor="middle" font-size="13px" width="75px" fill="#323232" font-weight="400" align="middle" lineHeight="125%" anchor="middle" family="微软雅黑" size="13px" weight="400" font-style="" opacity="1" y="5.875" transform="rotate(0)"><tspan id="SvgjsTspan1396" dy="16" x="47.5"><tspan id="SvgjsTspan1397" style="text-decoration:;">React</tspan></tspan></text></g></g><g id="SvgjsG1398" transform="translate(526,36.5)"><path id="SvgjsPath1399" d="M 0 0L 95 0L 95 31L 0 31Z" stroke="rgba(50,50,50,1)" stroke-width="2" fill-opacity="1" fill="#ffffff"></path><g id="SvgjsG1400"><text id="SvgjsText1401" font-family="微软雅黑" text-anchor="middle" font-size="13px" width="75px" fill="#323232" font-weight="400" align="middle" lineHeight="125%" anchor="middle" family="微软雅黑" size="13px" weight="400" font-style="" opacity="1" y="5.875" transform="rotate(0)"><tspan id="SvgjsTspan1402" dy="16" x="47.5"><tspan id="SvgjsTspan1403" style="text-decoration:;">图片</tspan></tspan></text></g></g><g id="SvgjsG1404" transform="translate(26,166.2302427982811)"><path id="SvgjsPath1405" d="M 0 10.5L 691 10.5" stroke-dasharray="10,6" stroke="rgba(136,136,136,1)" stroke-width="1" fill="none"></path><path id="SvgjsPath1406" d="M 0 0L 691 0L 691 21L 0 21Z" stroke="none" fill="none"></path></g><g id="SvgjsG1407" transform="translate(25,111.5)"><path id="SvgjsPath1408" d="M 0 0L 95 0L 95 43L 0 43Z" stroke="none" fill="none"></path><g id="SvgjsG1409"><text id="SvgjsText1410" font-family="微软雅黑" text-anchor="middle" font-size="13px" width="95px" fill="#323232" font-weight="400" align="middle" lineHeight="125%" anchor="middle" family="微软雅黑" size="13px" weight="400" font-style="" opacity="1" y="11.875" transform="rotate(0)"><tspan id="SvgjsTspan1411" dy="16" x="47.5"><tspan id="SvgjsTspan1412" style="text-decoration:;">展示层</tspan></tspan></text></g></g><g id="SvgjsG1413" transform="translate(126.90353051310524,104)"><path id="SvgjsPath1414" d="M 0 4Q 0 0 4 0L 503.10790231743266 0Q 507.10790231743266 0 507.10790231743266 4L 507.10790231743266 54Q 507.10790231743266 58 503.10790231743266 58L 4 58Q 0 58 0 54Z" stroke="none" fill-opacity="1" fill="#ffcc99"></path><g id="SvgjsG1415"><text id="SvgjsText1416" font-family="微软雅黑" text-anchor="start" font-size="13px" width="488px" fill="#323232" font-weight="400" align="middle" lineHeight="125%" anchor="start" family="微软雅黑" size="13px" weight="400" font-style="" opacity="1" y="19.375" transform="rotate(0)"><tspan id="SvgjsTspan1417" dy="16" x="10"><tspan id="SvgjsTspan1418" style="text-decoration:;">axios交互</tspan></tspan></text></g></g><g id="SvgjsG1419" transform="translate(440,117.5)"><path id="SvgjsPath1420" d="M 0 0L 95 0L 95 31L 0 31Z" stroke="rgba(50,50,50,1)" stroke-width="2" fill-opacity="1" fill="#ffffff"></path><g id="SvgjsG1421"><text id="SvgjsText1422" font-family="微软雅黑" text-anchor="middle" font-size="13px" width="75px" fill="#323232" font-weight="400" align="middle" lineHeight="125%" anchor="middle" family="微软雅黑" size="13px" weight="400" font-style="" opacity="1" y="5.875" transform="rotate(0)"><tspan id="SvgjsTspan1423" dy="16" x="47.5"><tspan id="SvgjsTspan1424" style="text-decoration:;">Get请求</tspan></tspan></text></g></g><g id="SvgjsG1425" transform="translate(265.3671679004553,117.5)"><path id="SvgjsPath1426" d="M 0 0L 95 0L 95 31L 0 31Z" stroke="rgba(50,50,50,1)" stroke-width="2" fill-opacity="1" fill="#ffffff"></path><g id="SvgjsG1427"><text id="SvgjsText1428" font-family="微软雅黑" text-anchor="middle" font-size="13px" width="75px" fill="#323232" font-weight="400" align="middle" lineHeight="125%" anchor="middle" family="微软雅黑" size="13px" weight="400" font-style="" opacity="1" y="5.875" transform="rotate(0)"><tspan id="SvgjsTspan1429" dy="16" x="47.5"><tspan id="SvgjsTspan1430" style="text-decoration:;">POST请求</tspan></tspan></text></g></g><g id="SvgjsG1431"><path id="SvgjsPath1432" d="M338.35235008528656 162L338.35235008528656 186.99999999999994L463.089201765796 186.99999999999994" stroke="#ffcc99" stroke-width="2" fill="none" marker-end="url(#SvgjsMarker1433)"></path></g><g id="SvgjsG1435"><path id="SvgjsPath1436" d="M386.6390451042215 286L386.6390451042215 298.5L387.18358395022756 298.5L387.18358395022756 308.4" stroke="#99ff99" stroke-width="2" fill="none" marker-end="url(#SvgjsMarker1437)"></path></g><g id="SvgjsG1439" transform="translate(33,482.66438019344093)"><path id="SvgjsPath1440" d="M 0 0L 95 0L 95 43L 0 43Z" stroke="none" fill="none"></path><g id="SvgjsG1441"><text id="SvgjsText1442" font-family="微软雅黑" text-anchor="middle" font-size="13px" width="95px" fill="#323232" font-weight="400" align="middle" lineHeight="125%" anchor="middle" family="微软雅黑" size="13px" weight="400" font-style="" opacity="1" y="11.875" transform="rotate(0)"><tspan id="SvgjsTspan1443" dy="16" x="47.5"><tspan id="SvgjsTspan1444" style="text-decoration:;">数据库</tspan></tspan></text></g></g><g id="SvgjsG1445" transform="matrix(-1.8369701987210297e-16,-1,1,-1.8369701987210297e-16,250.5,549.5)"><path id="SvgjsPath1446" d="M 12.45 0L 74 0C 85.45454545454545 0 85.45454545454545 54 74 54L 12.45 54C -4.15 54 -4.15 0 12.45 0ZM 74 0C 62.75 0 62.75 54 74 54C 62.75 54 62.75 0 74 0" stroke="rgba(50,50,50,1)" stroke-width="2" fill-opacity="1" fill="#ffffff"></path><g id="SvgjsG1447"><text id="SvgjsText1448" font-family="微软雅黑" text-anchor="middle" font-size="13px" width="67px" fill="#323232" font-weight="400" align="middle" lineHeight="125%" anchor="middle" family="微软雅黑" size="13px" weight="400" font-style="" opacity="1" y="17.375" transform="rotate(0)"><tspan id="SvgjsTspan1449" dy="16" x="33.5"><tspan id="SvgjsTspan1450" style="text-decoration:;">MS SQL</tspan></tspan></text></g></g><g id="SvgjsG1451" transform="translate(26,569.0437942624403)"><path id="SvgjsPath1452" d="M 0 10.5L 691 10.5" stroke-dasharray="10,6" stroke="rgba(136,136,136,1)" stroke-width="1" fill="none"></path><path id="SvgjsPath1453" d="M 0 0L 691 0L 691 21L 0 21Z" stroke="none" fill="none"></path></g><g id="SvgjsG1454" transform="matrix(-1.8369701987210297e-16,-1,1,-1.8369701987210297e-16,374.5,549.5)"><path id="SvgjsPath1455" d="M 12.45 0L 74 0C 85.45454545454545 0 85.45454545454545 54 74 54L 12.45 54C -4.15 54 -4.15 0 12.45 0ZM 74 0C 62.75 0 62.75 54 74 54C 62.75 54 62.75 0 74 0" stroke="rgba(50,50,50,1)" stroke-width="2" fill-opacity="1" fill="#cfcfcf"></path><g id="SvgjsG1456"><text id="SvgjsText1457" font-family="微软雅黑" text-anchor="middle" font-size="13px" width="67px" fill="#323232" font-weight="400" align="middle" lineHeight="125%" anchor="middle" family="微软雅黑" size="13px" weight="400" font-style="" opacity="1" y="17.375" transform="rotate(0)"><tspan id="SvgjsTspan1458" dy="16" x="33.5"><tspan id="SvgjsTspan1459" style="text-decoration:;">My SQL</tspan></tspan></text></g></g><g id="SvgjsG1460" transform="translate(176.5,323.5)"><path id="SvgjsPath1461" d="M 0 0L 112 0L 112 37L 0 37Z" stroke="rgba(50,50,50,1)" stroke-width="2" fill-opacity="1" fill="#ffffff"></path><g id="SvgjsG1462"><text id="SvgjsText1463" font-family="微软雅黑" text-anchor="middle" font-size="13px" width="92px" fill="#323232" font-weight="400" align="middle" lineHeight="125%" anchor="middle" family="微软雅黑" size="13px" weight="400" font-style="" opacity="1" y="8.875" transform="rotate(0)"><tspan id="SvgjsTspan1464" dy="16" x="56"><tspan id="SvgjsTspan1465" style="text-decoration:;">目标检测</tspan></tspan></text></g></g><g id="SvgjsG1466" transform="translate(176.5,372.5)"><path id="SvgjsPath1467" d="M 0 0L 112 0L 112 37L 0 37Z" stroke="rgba(50,50,50,1)" stroke-width="2" fill-opacity="1" fill="#ffffff"></path><g id="SvgjsG1468"><text id="SvgjsText1469" font-family="微软雅黑" text-anchor="middle" font-size="13px" width="92px" fill="#323232" font-weight="400" align="middle" lineHeight="125%" anchor="middle" family="微软雅黑" size="13px" weight="400" font-style="" opacity="1" y="8.875" transform="rotate(0)"><tspan id="SvgjsTspan1470" dy="16" x="56"><tspan id="SvgjsTspan1471" style="text-decoration:;">事务</tspan></tspan></text></g></g><g id="SvgjsG1472" transform="translate(431.5,323.5)"><path id="SvgjsPath1473" d="M 0 0L 112 0L 112 37L 0 37Z" stroke="rgba(50,50,50,1)" stroke-width="2" fill-opacity="1" fill="#ffffff"></path><g id="SvgjsG1474"><text id="SvgjsText1475" font-family="微软雅黑" text-anchor="middle" font-size="13px" width="92px" fill="#323232" font-weight="400" align="middle" lineHeight="125%" anchor="middle" family="微软雅黑" size="13px" weight="400" font-style="" opacity="1" y="8.875" transform="rotate(0)"><tspan id="SvgjsTspan1476" dy="16" x="56"><tspan id="SvgjsTspan1477" style="text-decoration:;">纹理提取</tspan></tspan></text></g></g><g id="SvgjsG1478" transform="translate(431.5,372.5)"><path id="SvgjsPath1479" d="M 0 0L 112 0L 112 37L 0 37Z" stroke="rgba(50,50,50,1)" stroke-width="2" fill-opacity="1" fill="#ffffff"></path><g id="SvgjsG1480"><text id="SvgjsText1481" font-family="微软雅黑" text-anchor="middle" font-size="13px" width="92px" fill="#323232" font-weight="700" align="middle" lineHeight="125%" anchor="middle" family="微软雅黑" size="13px" weight="700" font-style="" opacity="1" y="8.875" transform="rotate(0)"><tspan id="SvgjsTspan1482" dy="16" x="56"><tspan id="SvgjsTspan1483" style="text-decoration:;">... ...</tspan></tspan></text></g></g><g id="SvgjsG1484"><path id="SvgjsPath1485" d="M232.5 104L232.5 90L232.60610311235604 90L232.60610311235604 75.99999999999997" stroke="#66ffb3" stroke-width="2" fill="none" marker-start="url(#SvgjsMarker1486)"></path></g><g id="SvgjsG1488"><path id="SvgjsPath1489" d="M492.8938968876439 97.2302427982811L492.8938968876439 88.11512139914055L492.8938968876439 88.11512139914055L492.8938968876439 79" stroke="#66ffb3" stroke-width="2" fill="none" marker-start="url(#SvgjsMarker1490)"></path></g><g id="SvgjsG1492"><path id="SvgjsPath1493" d="M387.18358395022756 431L387.18358395022756 449.70165745856343L354.39209768256734 449.70165745856343" stroke="#99ff99" stroke-width="2" fill="none" marker-end="url(#SvgjsMarker1494)"></path></g><g id="SvgjsG1496"><path id="SvgjsPath1497" d="M401.5 562.4714146602823L401.5 576.4067757320796L401.5 576.4067757320796L401.5 586.1127071823205" stroke="#9999ff" stroke-width="2" fill="none" marker-end="url(#SvgjsMarker1498)"></path></g><g id="SvgjsG1500" transform="translate(648.5,102.99999999999997)"><path id="SvgjsPath1501" d="M 0 4Q 0 0 4 0L 38 0Q 42 0 42 4L 42 315.70165745856343Q 42 319.70165745856343 38 319.70165745856343L 4 319.70165745856343Q 0 319.70165745856343 0 315.70165745856343Z" stroke="none" fill-opacity="1" fill="#ff9999"></path><g id="SvgjsG1502"><text id="SvgjsText1503" font-family="微软雅黑" text-anchor="middle" font-size="13px" width="22px" fill="#323232" font-weight="400" align="middle" lineHeight="125%" anchor="middle" family="微软雅黑" size="13px" weight="400" font-style="" opacity="1" y="125.72582872928172" transform="rotate(0)"><tspan id="SvgjsTspan1504" dy="16" x="21"><tspan id="SvgjsTspan1505" style="text-decoration:;">图</tspan></tspan><tspan id="SvgjsTspan1506" dy="16" x="21"><tspan id="SvgjsTspan1507" style="text-decoration:;">像</tspan></tspan><tspan id="SvgjsTspan1508" dy="16" x="21"><tspan id="SvgjsTspan1509" style="text-decoration:;">处</tspan></tspan><tspan id="SvgjsTspan1510" dy="16" x="21"><tspan id="SvgjsTspan1511" style="text-decoration:;">理</tspan></tspan></text></g></g><g id="SvgjsG1512" transform="matrix(-1.8369701987210297e-16,-1,1,-1.8369701987210297e-16,498.31146240234375,549.5)"><path id="SvgjsPath1513" d="M 12.45 0L 74 0C 85.45454545454545 0 85.45454545454545 54 74 54L 12.45 54C -4.15 54 -4.15 0 12.45 0ZM 74 0C 62.75 0 62.75 54 74 54C 62.75 54 62.75 0 74 0" stroke="rgba(50,50,50,1)" stroke-width="2" fill-opacity="1" fill="#cfcfcf"></path><g id="SvgjsG1514"><text id="SvgjsText1515" font-family="微软雅黑" text-anchor="middle" font-size="13px" width="67px" fill="#323232" font-weight="400" align="middle" lineHeight="125%" anchor="middle" family="微软雅黑" size="13px" weight="400" font-style="" opacity="1" y="17.375" transform="rotate(0)"><tspan id="SvgjsTspan1516" dy="16" x="33.5"><tspan id="SvgjsTspan1517" style="text-decoration:;">Oracle</tspan></tspan></text></g></g></svg>